<?xml version="1.0" standalone="no"?>
<!DOCTYPE svg PUBLIC "-//W3C//DTD SVG 20010904//EN"
 "http://www.w3.org/TR/2001/REC-SVG-20010904/DTD/svg10.dtd">
<svg version="1.0" xmlns="http://www.w3.org/2000/svg"
 width="700.000000pt" height="700.000000pt" viewBox="0 0 700.000000 700.000000"
 preserveAspectRatio="xMidYMid meet">
<metadata>
Created by potrace 1.14, written by Peter Selinger 2001-2017
</metadata>
<g transform="translate(0.000000,700.000000) scale(0.100000,-0.100000)"
fill="#000000" stroke="none">
<path d="M0 3500 l0 -3500 3500 0 3500 0 0 3500 0 3500 -3500 0 -3500 0 0
-3500z m3164 2882 c2 -4 107 -666 232 -1470 126 -804 231 -1458 235 -1454 3 4
111 662 238 1462 128 800 235 1458 237 1462 3 4 300 8 660 8 l654 0 0 -67 c-1
-676 -31 -5637 -34 -5640 -4 -5 -787 -33 -918 -33 l-98 0 -2 1353 -3 1352
-224 -1335 c-123 -734 -226 -1343 -229 -1352 -4 -17 -26 -18 -277 -18 -209 0
-274 3 -277 12 -3 7 -108 618 -234 1358 l-229 1345 -3 -1357 -2 -1358 -520 0
-520 0 0 2870 0 2870 654 0 c360 0 657 -4 660 -8z"/>
</g>
</svg>
